<svg xmlns="http://www.w3.org/2000/svg" viewBox="0 0 24 24"><path fill="black" d="M20.52 3.48A11.83 11.83 0 0 0 12.07 0C5.56 0 .27 5.29.27 11.8c0 2.08.54 4.1 1.58 5.88L0 24l6.52-1.71a11.79 11.79 0 0 0 5.55 1.41h.01c6.51 0 11.8-5.29 11.8-11.8 0-3.15-1.23-6.11-3.36-8.42Zm-8.45 18.2h-.01a9.78 9.78 0 0 1-4.98-1.36l-.36-.21-3.87 1.01 1.03-3.77-.23-.39a9.8 9.8 0 1 1 8.42 4.72Zm5.37-7.34c-.29-.15-1.73-.85-1.99-.95-.27-.1-.46-.15-.66.15-.2.29-.76.95-.93 1.15-.17.2-.34.22-.63.08-.29-.15-1.23-.45-2.34-1.45-.86-.77-1.45-1.73-1.62-2.02-.17-.29-.02-.45.13-.6.13-.12.29-.32.44-.48.15-.17.19-.29.29-.49.1-.2.05-.37-.03-.51-.07-.15-.66-1.59-.9-2.17-.24-.58-.49-.5-.66-.5l-.56-.01c-.2 0-.51.07-.78.37-.27.29-1.03 1.01-1.03 2.46 0 1.45 1.06 2.85 1.2 3.05.15.2 2.09 3.19 5.06 4.47.71.31 1.27.49 1.71.63.72.23 1.37.2 1.88.12.57-.09 1.73-.71 1.98-1.4.24-.68.24-1.27.17-1.4-.07-.12-.27-.19-.56-.34Z"/></svg>